<svg width="16" height="16" viewBox="0 0 16 16" fill="none" xmlns="http://www.w3.org/2000/svg">
<path d="M11.8171 2H4.18286C2.9773 2 2 2.9773 2 4.18286V11.8171C2 13.0227 2.9773 14 4.18286 14H11.8171C13.0227 14 14 13.0227 14 11.8171V4.18286C14 2.9773 13.0227 2 11.8171 2Z" stroke="#2C2823" stroke-width="1.5" stroke-miterlimit="10"/>
<path d="M8 11C9.65685 11 11 9.65685 11 8C11 6.34315 9.65685 5 8 5C6.34315 5 5 6.34315 5 8C5 9.65685 6.34315 11 8 11Z" stroke="#2C2823" stroke-width="1.5" stroke-miterlimit="10"/>
<path d="M11.75 5C12.1642 5 12.5 4.66421 12.5 4.25C12.5 3.83579 12.1642 3.5 11.75 3.5C11.3358 3.5 11 3.83579 11 4.25C11 4.66421 11.3358 5 11.75 5Z" fill="#2C2823"/>
</svg>
